<svg width="32" height="32" viewBox="0 0 32 32" fill="none" xmlns="http://www.w3.org/2000/svg">
<circle cx="16" cy="16" r="16" fill="#F6F6F6"/>
<path fill-rule="evenodd" clip-rule="evenodd" d="M11 12.3333C10.8232 12.3333 10.6536 12.4036 10.5286 12.5286C10.4036 12.6536 10.3333 12.8232 10.3333 13V22.0572L11.8619 20.5286C11.987 20.4036 12.1565 20.3333 12.3333 20.3333H20.3333C20.5101 20.3333 20.6797 20.2631 20.8047 20.1381C20.9298 20.013 21 19.8435 21 19.6667V13C21 12.8232 20.9298 12.6536 20.8047 12.5286C20.6797 12.4036 20.5101 12.3333 20.3333 12.3333H11ZM9.58579 11.5858C9.96086 11.2107 10.4696 11 11 11H20.3333C20.8638 11 21.3725 11.2107 21.7475 11.5858C22.1226 11.9609 22.3333 12.4696 22.3333 13V19.6667C22.3333 20.1971 22.1226 20.7058 21.7475 21.0809C21.3725 21.456 20.8638 21.6667 20.3333 21.6667H12.6095L10.1381 24.1381C9.94741 24.3287 9.66066 24.3858 9.41154 24.2826C9.16243 24.1794 9 23.9363 9 23.6667V13C9 12.4696 9.21071 11.9609 9.58579 11.5858Z" fill="#4894FF"/>
</svg>
